<svg width="120" height="120" viewBox="0 0 120 120" fill="none" xmlns="http://www.w3.org/2000/svg">
<path fill-rule="evenodd" clip-rule="evenodd" d="M105.368 82.8C103.849 85.2366 102.971 88.1124 102.971 91.2C102.971 94.2876 103.849 97.1634 105.368 99.6H108.6V106.8H27C18.3844 106.8 11.4 99.8157 11.4 91.2C11.4 82.5843 18.3844 75.6 27 75.6H108.6V82.8H105.368ZM95.7714 91.2C95.7714 94.1613 96.33 96.9954 97.3473 99.6H27C22.3608 99.6 18.6 95.8392 18.6 91.2C18.6 86.5608 22.3608 82.8 27 82.8H97.3473C96.33 85.4046 95.7714 88.2387 95.7714 91.2Z" fill="white"/>
<path d="M24.2285 60C24.2285 57.0387 23.6699 54.2046 22.6527 51.6H30.6V44.4H11.4V51.6H14.6317C16.1515 54.0366 17.0285 56.9124 17.0285 60C17.0285 63.0876 16.1515 65.9634 14.6317 68.4H11.4V75.6H93C101.616 75.6 108.6 68.6157 108.6 60C108.6 51.3843 101.616 44.4 93 44.4H52.8V51.6H93C97.6392 51.6 101.4 55.3608 101.4 60C101.4 64.6392 97.6392 68.4 93 68.4H22.6527C23.6699 65.7954 24.2285 62.9613 24.2285 60Z" fill="white"/>
<path d="M18.6 28.8C18.6 24.1608 22.3608 20.4 27 20.4H97.3473C96.33 23.0046 95.7714 25.8386 95.7714 28.8C95.7714 31.7613 96.33 34.5954 97.3473 37.2H52.8V44.4H108.6V37.2H105.368C103.849 34.7634 102.971 31.8876 102.971 28.8C102.971 25.7124 103.849 22.8367 105.368 20.4H108.6V13.2H27C18.3844 13.2 11.4 20.1844 11.4 28.8C11.4 37.4157 18.3844 44.4 27 44.4H30.6V37.2H27C22.3608 37.2 18.6 33.4392 18.6 28.8Z" fill="white"/>
<path fill-rule="evenodd" clip-rule="evenodd" d="M34.2001 28.8H49.2001V59.7L41.8066 52.3066L34.2001 59.9137L34.2001 28.8Z" fill="white"/>
</svg>
